<mxfile host="app.diagrams.net" modified="2024-02-15T11:59:01.350Z" agent="Mozilla/5.0 (Windows NT 10.0; Win64; x64) AppleWebKit/537.36 (KHTML, like Gecko) Chrome/114.0.5759.201 Safari/537.36" etag="uYpg0sOcUhQ4SdN4CfyE" version="23.1.4" type="github">
  <diagram name="Page-1" id="YoJM_4QXtx1qjkrAateH">
    <mxGraphModel dx="1658" dy="853" grid="1" gridSize="10" guides="1" tooltips="1" connect="1" arrows="1" fold="1" page="1" pageScale="1" pageWidth="827" pageHeight="1169" math="0" shadow="0">
      <root>
        <mxCell id="0" />
        <mxCell id="1" parent="0" />
        <mxCell id="l3I_x0sty_MFoElKGN9t-6" style="edgeStyle=orthogonalEdgeStyle;rounded=0;orthogonalLoop=1;jettySize=auto;html=1;exitX=0.5;exitY=1;exitDx=0;exitDy=0;entryX=0.5;entryY=0;entryDx=0;entryDy=0;" edge="1" parent="1" source="l3I_x0sty_MFoElKGN9t-1" target="l3I_x0sty_MFoElKGN9t-4">
          <mxGeometry relative="1" as="geometry" />
        </mxCell>
        <mxCell id="l3I_x0sty_MFoElKGN9t-1" value="" style="ellipse;whiteSpace=wrap;html=1;" vertex="1" parent="1">
          <mxGeometry x="354" y="40" width="120" height="80" as="geometry" />
        </mxCell>
        <mxCell id="l3I_x0sty_MFoElKGN9t-2" value="Mini_Max" style="text;strokeColor=none;align=center;fillColor=none;html=1;verticalAlign=middle;whiteSpace=wrap;rounded=0;" vertex="1" parent="1">
          <mxGeometry x="384" y="65" width="60" height="30" as="geometry" />
        </mxCell>
        <mxCell id="l3I_x0sty_MFoElKGN9t-4" value="moves = W_Moves if White_Playing else B_Moves" style="rounded=0;whiteSpace=wrap;html=1;" vertex="1" parent="1">
          <mxGeometry x="354" y="260" width="120" height="60" as="geometry" />
        </mxCell>
        <mxCell id="l3I_x0sty_MFoElKGN9t-8" style="edgeStyle=orthogonalEdgeStyle;rounded=0;orthogonalLoop=1;jettySize=auto;html=1;exitX=0;exitY=0.5;exitDx=0;exitDy=0;" edge="1" parent="1" source="l3I_x0sty_MFoElKGN9t-7">
          <mxGeometry relative="1" as="geometry">
            <mxPoint x="410" y="140" as="targetPoint" />
          </mxGeometry>
        </mxCell>
        <mxCell id="l3I_x0sty_MFoElKGN9t-7" value="Board, " style="rounded=0;whiteSpace=wrap;html=1;" vertex="1" parent="1">
          <mxGeometry x="474" y="130" width="120" height="20" as="geometry" />
        </mxCell>
        <mxCell id="l3I_x0sty_MFoElKGN9t-9" value="Board, " style="rounded=0;whiteSpace=wrap;html=1;" vertex="1" parent="1">
          <mxGeometry x="474" y="130" width="120" height="20" as="geometry" />
        </mxCell>
        <mxCell id="l3I_x0sty_MFoElKGN9t-14" style="edgeStyle=orthogonalEdgeStyle;rounded=0;orthogonalLoop=1;jettySize=auto;html=1;exitX=0;exitY=0.5;exitDx=0;exitDy=0;" edge="1" parent="1" source="l3I_x0sty_MFoElKGN9t-10">
          <mxGeometry relative="1" as="geometry">
            <mxPoint x="410" y="170" as="targetPoint" />
          </mxGeometry>
        </mxCell>
        <mxCell id="l3I_x0sty_MFoElKGN9t-10" value="W_Moves, B_Moves" style="rounded=0;whiteSpace=wrap;html=1;" vertex="1" parent="1">
          <mxGeometry x="474" y="160" width="120" height="20" as="geometry" />
        </mxCell>
        <mxCell id="l3I_x0sty_MFoElKGN9t-15" style="edgeStyle=orthogonalEdgeStyle;rounded=0;orthogonalLoop=1;jettySize=auto;html=1;exitX=0;exitY=0.5;exitDx=0;exitDy=0;" edge="1" parent="1" source="l3I_x0sty_MFoElKGN9t-12">
          <mxGeometry relative="1" as="geometry">
            <mxPoint x="410" y="200" as="targetPoint" />
          </mxGeometry>
        </mxCell>
        <mxCell id="l3I_x0sty_MFoElKGN9t-12" value="White_Playing" style="rounded=0;whiteSpace=wrap;html=1;" vertex="1" parent="1">
          <mxGeometry x="474" y="190" width="120" height="20" as="geometry" />
        </mxCell>
        <mxCell id="l3I_x0sty_MFoElKGN9t-16" style="edgeStyle=orthogonalEdgeStyle;rounded=0;orthogonalLoop=1;jettySize=auto;html=1;exitX=0;exitY=0.25;exitDx=0;exitDy=0;" edge="1" parent="1" source="l3I_x0sty_MFoElKGN9t-13">
          <mxGeometry relative="1" as="geometry">
            <mxPoint x="410" y="225" as="targetPoint" />
          </mxGeometry>
        </mxCell>
        <mxCell id="l3I_x0sty_MFoElKGN9t-13" value="Depth" style="rounded=0;whiteSpace=wrap;html=1;" vertex="1" parent="1">
          <mxGeometry x="474" y="220" width="120" height="20" as="geometry" />
        </mxCell>
        <mxCell id="l3I_x0sty_MFoElKGN9t-18" value="" style="endArrow=none;dashed=1;html=1;dashPattern=1 3;strokeWidth=2;rounded=0;" edge="1" parent="1">
          <mxGeometry width="50" height="50" relative="1" as="geometry">
            <mxPoint x="10" y="360" as="sourcePoint" />
            <mxPoint x="820" y="360" as="targetPoint" />
          </mxGeometry>
        </mxCell>
        <mxCell id="l3I_x0sty_MFoElKGN9t-19" value="#Iterate through all legal moves" style="text;strokeColor=none;align=center;fillColor=none;html=1;verticalAlign=middle;whiteSpace=wrap;rounded=0;" vertex="1" parent="1">
          <mxGeometry x="490" y="320" width="90" height="30" as="geometry" />
        </mxCell>
      </root>
    </mxGraphModel>
  </diagram>
</mxfile>
